<svg xmlns="http://www.w3.org/2000/svg" viewBox="0 0 303.23 95.38"><defs><style>.cls-1{stroke:#000;stroke-miterlimit:10;stroke-width:5px;}</style></defs><title>Asset 3</title><g id="Layer_2" data-name="Layer 2"><g id="Layer_1-2" data-name="Layer 1"><path class="cls-1" d="M60.86,3.49c0-.74.25-1,1-1,1,0,6.68.37,14.59.37C86.82,2.87,90,2.5,91,2.5c.74,0,1,.25,1,.87V6.46c0,.62-.25,1-1,1h-3c-3,0-6.18,1.24-9,5.69-4.08,6.55-11.5,25.84-15,34C61.6,52.58,46.76,88.68,45.53,91.27a2.84,2.84,0,0,1-2.47,1.61c-1.48,0-2.1-1.36-2.72-2.84-4.2-10.51-14.59-38.82-18.79-50.32-3.21-8.9-8.65-24.73-10-28.31-1.11-2.72-2.6-4-5.32-4h-3q-.74,0-.74-1.11V3.49c0-.74.25-1,.74-1,1.24,0,5.44.37,18.3.37,11.62,0,17.31-.37,18.3-.37s1.24.37,1.24,1V6.21c0,.87-.25,1.24-1,1.24H34.15C30.94,7.45,29,8.68,29,10.54a19.19,19.19,0,0,0,.37,4.2c.87,4.45,5.56,19,8,26.21,1.73,4.7,8.41,24.23,10.39,30.91H48v-.25c3-6.92,10.88-27.45,12.12-31.16,2-5.81,9.64-24.48,9.64-29.55,0-1.48-1.24-3.46-4.7-3.46H61.72a1,1,0,0,1-.87-1.11Z"/><path class="cls-1" d="M121.44,50.35c0,1.24.25,29.67.25,31,0,4,2,4.45,4.95,4.45h5.19a.88.88,0,0,1,1,.87v3.09c0,.74-.49,1-1.24,1-1.48,0-6.43-.37-18.05-.37-12.36,0-17.8.37-19,.37-.74,0-1-.25-1-.87V86.58c0-.49.25-.74,1-.74h4.95c2.47,0,5.19-.25,5.69-3.58.25-1.73.49-28.44.49-35.11V38.48c0-3-.25-25.22-.37-26.83-.37-3-1.61-4.2-5.07-4.2H93.75c-.74,0-1-.25-1-.87V3.37c0-.62.25-.87.74-.87,1.48,0,7.91.37,20,.37,11.87,0,15.83-.37,17.56-.37.74,0,1,.49,1,1.11V6.46a.91.91,0,0,1-1,1h-4.7c-2.72,0-4.7,1-4.7,3.34,0,1.24-.25,28.44-.25,29.92Z"/><path class="cls-1" d="M149.15,34.52c0,21,1,38.33,1.24,42.16.25,6.18,1.73,9.15,6.18,9.15h3.21c1,0,1,.5,1,1.11v2.84c0,.74,0,1-1,1-1.24,0-8.65-.37-13.35-.37-3.21,0-11.62.37-12.86.37-.49,0-.74-.25-.74-1.11V86.58a.79.79,0,0,1,.74-.74h4.2c3.21,0,4.95-2.72,5.56-10.26.12-2.23.87-19.54.87-39.32V20.55c0-7.42-4.2-13.11-9.64-13.11h-4a.82.82,0,0,1-.74-.87V3.24a.66.66,0,0,1,.74-.74c.62,0,1.61.12,3.83.25s5.56.12,11,.12c2.1,0,4-.12,5.44-.25s2.72-.12,3.46-.12a3.65,3.65,0,0,1,3,1.11c1.24,1.24,25.47,31.65,27.94,35.11,1.73,2,21,26,23,28.44h.49V54.31c0-10.88,0-17.06-.25-23.24-.25-4.7-.74-16.82-1.36-18.92a6.64,6.64,0,0,0-6.55-4.7h-4c-.74,0-.74-.49-.74-1.11V3.49c0-.74,0-1,1-1,1.48,0,5.44.37,13.85.37,7.42,0,10.39-.37,11.87-.37,1,0,1.24.49,1.24.87V6.21c0,.74-.25,1.24-.74,1.24h-3.46c-2.47,0-3.71,2-4.08,6.55-.62,8.41-1.85,29.18-1.85,41.79V88.43c0,1.73,0,3.46-1.48,3.46a6.16,6.16,0,0,1-4.2-2c-1-1.24-7.67-8.9-15.33-18.05-8.66-10.63-18.3-22.26-19.78-24.23-1.73-1.73-21.51-26.46-23-28.19h-.74Z"/><path class="cls-1" d="M250.39,54.18c.12,6.63.37,18.66.37,20.87,0,6.38,2.21,8.84,4.91,9.57a38.85,38.85,0,0,0,9.57,1c2.21,0,7.86-.25,10.31-.49a20.94,20.94,0,0,0,10.07-4.17c2.21-2,9.08-10.07,11.42-13,.49-.61.86-.74,1.35-.49l2,1.23c.37.25.49.61.25,1.23L294.71,88.3a2.6,2.6,0,0,1-2.7,1.84c-.61,0-3.31-.12-10.93-.25s-20.38-.12-40.88-.12c-4.54,0-7.86.12-10.43.12s-4.17.25-5.28.25c-.74,0-1-.25-1-1V86.22c0-.74.25-1,1.23-1h4.17c5.65,0,6.14-.74,6.14-5.28V38.71c0-10.06-.25-25.29-.49-27-.49-3.31-1.72-4.3-5.4-4.3h-4.67c-.49,0-.74-.25-.74-.86V3.36c0-.61.12-.86.74-.86,2.7,0,7.12.49,17.19.37h3.44c5.4,0,33.63-.25,39-.25,2,0,4.3-.12,4.91-.12a.86.86,0,0,1,1,.74c.49,1.6,5.15,18.29,5.65,19.52.25.74.12,1.11-.37,1.35l-2.21,1c-.37.12-.74,0-1.1-.61s-10.56-12-13.5-13.75c-2.58-1.47-5.89-3.07-9.33-3.19L250.52,7l-.25,35.47c3.68,0,12.52-.25,14-.61,2.7-.49,4.17-1.47,5.65-4.42.74-1.6,2-4.66,2-6.87a.9.9,0,0,1,1-1l3.19.25c.49,0,.86.25.74,1-.25,2-.25,10.06-.25,13.26,0,4.91.49,10.8.74,13.5,0,.61-.25.74-1,.86l-2.7.49c-.49.12-.74-.12-1-.86a51.82,51.82,0,0,0-2-6.14,7.51,7.51,0,0,0-6.14-4.42c-4.42-.49-10.31-.74-14.24-.74Z"/></g></g></svg>